<svg xmlns="http://www.w3.org/2000/svg" xml:space="preserve" width="578.01" height="299.326" viewBox="0 0 152.932 79.197"><path d="M100.904 118.287c-39.26.737-38.773 8.056-37.473 19.155l.02.116H44.176a2.724 2.724 0 0 0-2.73 2.73v1.024a2.724 2.724 0 0 0 2.73 2.73h20.35c.498 2.992.843 5.072 1.082 6.516H46.496a2.724 2.724 0 0 0-2.73 2.73v1.023a2.724 2.724 0 0 0 2.73 2.73H66.69l1.1 6.565H52.342a2.724 2.724 0 0 0-2.73 2.73v1.024a2.724 2.724 0 0 0 2.73 2.73h16.535l.014.082.05-.058c18.152 16.33 42.086 18.118 61.112-2.422 30.334-10 16.609-33.052 7.926-35.357-.346-9.532-18.57-14.395-37.075-14.048m37.47 22.371c2.953-.065 9.942 15.122-5.945 18.991 1.492-4.932 4.017-13.346 4.776-17.425.117-1.08.653-1.554 1.168-1.566" style="fill:#b29ff3;fill-opacity:1;stroke-width:.217093" transform="translate(-22.89 -111.256)"/></svg>